<?xml version="1.0" standalone="no"?>
<!DOCTYPE svg PUBLIC "-//W3C//DTD SVG 20010904//EN"
 "http://www.w3.org/TR/2001/REC-SVG-20010904/DTD/svg10.dtd">
<svg version="1.0" xmlns="http://www.w3.org/2000/svg"
 width="260.000000pt" height="260.000000pt" viewBox="0 0 260.000000 260.000000"
 preserveAspectRatio="xMidYMid meet">
<metadata>
Created by potrace 1.11, written by Peter Selinger 2001-2013
</metadata>
<g transform="translate(0.000000,260.000000) scale(0.100000,-0.100000)"
fill="#000000" stroke="none">
<path d="M703 1893 l-591 -593 297 -297 c164 -164 431 -432 594 -595 l297
-297 594 595 595 594 -583 582 c-320 321 -589 588 -597 594 -11 8 -136 -112
-606 -583z m1142 -53 l540 -540 -543 -543 -542 -542 -542 542 -543 543 540
540 c297 297 542 540 545 540 3 0 248 -243 545 -540z"/>
<path d="M1420 1589 c-17 -33 -39 -75 -49 -93 -10 -17 -55 -100 -101 -184 -45
-84 -86 -150 -90 -145 -4 4 -36 98 -70 208 -94 306 -78 287 -123 148 -131
-404 -168 -525 -163 -530 2 -3 23 -6 45 -6 l41 -2 36 115 c70 226 78 250 85
250 6 0 24 -57 95 -300 14 -47 28 -88 32 -92 4 -4 21 18 38 50 18 31 66 120
108 196 42 76 76 143 76 147 0 14 17 10 17 -3 1 -16 15 -224 18 -258 1 -14 3
-41 3 -61 2 -36 3 -37 48 -41 l46 -3 -6 65 c-3 36 -8 103 -11 150 -3 47 -7
101 -10 120 -2 19 -7 80 -10 135 -7 115 -14 187 -19 192 -2 2 -18 -24 -36 -58z"/>
<path d="M1600 1629 c-41 -25 -60 -58 -60 -104 0 -92 91 -149 174 -110 46 22
69 59 69 110 0 97 -101 154 -183 104z m118 -84 c12 -25 -2 -61 -30 -79 -26
-16 -71 4 -82 37 -26 72 80 112 112 42z"/>
</g>
</svg>
